# xmcd
#
# Track frame offsets:
#	150
#	14587
#	28091
#	44997
#	61509
#	81861
#	97106
#	112095
#	126298
#	141079
#	157273
#	176469
#
# Disc length: 2572 seconds
#
# Revision: 0
# Processed by: cddbd v1.5.2PL0 Copyright (c) Steve Scherf et al.
# Submitted via: dBpowerAMP V4.0
#
DISCID=ad0a0a0c
DTITLE=Bec Willis - Chasing Shadows
DYEAR=2007
DGENRE=Country
TTITLE0=Shiver and Shake
TTITLE1=Live and Let it Be 
TTITLE2=Picket Fences
TTITLE3=Cry
TTITLE4=Resolution
TTITLE5=Toohey Road
TTITLE6=Handfulls of Nothing
TTITLE7=Rumi
TTITLE8=Alcohol and Loneliness
TTITLE9=Scared
TTITLE10=Sound of Heartbreak
TTITLE11=Change in the Weather
EXTD=
EXTT0=
EXTT1=
EXTT2=
EXTT3=
EXTT4=
EXTT5=
EXTT6=
EXTT7=
EXTT8=
EXTT9=
EXTT10=
EXTT11=
PLAYORDER=
